<svg id="Calque_1" data-name="Calque 1" xmlns="http://www.w3.org/2000/svg" viewBox="0 0 572.66 149.64"><defs><style>.cls-1{fill:#828282;}.cls-2{fill:#4161ff;}.cls-3{fill:none;stroke:#161616;stroke-linecap:square;stroke-linejoin:bevel;stroke-width:3px;}</style></defs><title>AdForgeLogoFinal</title><path class="cls-1" d="M218.14,295.45H180.09l-11.23,33H162l34-96.08h6.71l33.83,96.08h-7.14Zm-1.9-5.69-6.12-17.93c-3.79-11.37-7.29-21.43-10.64-33.24H198.9c-3.35,11.81-6.71,21.87-10.64,33.24l-6.12,17.93h34.12Z" transform="translate(-134.61 -205.89)"/><path class="cls-1" d="M247.38,256.35H264c22.2,0,32.8,14,32.8,35.76s-10.61,36.3-32.69,36.3H247.38V256.35Zm16.07,67.79c19.57,0,28.1-13.23,28.1-32s-8.53-31.49-28.1-31.49h-11v63.53h11Z" transform="translate(-134.61 -205.89)"/><path class="cls-2" d="M313.1,233.64h61.82v21H338.17v18.08h31.49v21H338.17v34.7H313.1V233.64Z" transform="translate(-134.61 -205.89)"/><path class="cls-2" d="M385.56,292.54c0-23.4,13.34-36.52,33-36.52s33,13.23,33,36.52-13.34,37.18-33,37.18S385.56,315.94,385.56,292.54Zm46.8,0c0-12.9-5.25-20.34-13.78-20.34s-13.78,7.44-13.78,20.34,5.25,21,13.78,21S432.36,305.44,432.36,292.54Z" transform="translate(-134.61 -205.89)"/><path class="cls-2" d="M502.56,328.4l-12.25-23.84h-7.22V328.4H464.29V257.33h26.9c15.31,0,28.43,5.25,28.43,23,0,10.17-4.59,16.84-11.48,20.56l15.42,27.55h-21ZM483.09,289.7h6.78c7.44,0,11.37-3.28,11.37-9.4s-3.94-8.09-11.37-8.09h-6.78v17.5Z" transform="translate(-134.61 -205.89)"/><path class="cls-2" d="M566,256a31.77,31.77,0,0,1,22.74,9.4L578.45,277c-3.5-3.06-6.56-4.81-12.25-4.81-9.62,0-16.84,7.65-16.84,20.56,0,13.34,5.9,20.78,18.59,20.78a10.65,10.65,0,0,0,5.47-1.31v-9.84h-10.5V287.07H590V321a40.08,40.08,0,0,1-24.49,8.75c-19.46,0-35.43-12-35.43-36.3C530.12,269.58,546.52,256,566,256Z" transform="translate(-134.61 -205.89)"/><path class="cls-2" d="M603.82,257.33h45.92v15.75H622.62v11.15H645.8V300H622.62v12.68h28.21V328.4h-47V257.33Z" transform="translate(-134.61 -205.89)"/><line id="__Top" data-name="_ Top" class="cls-3" x1="264.15" y1="1.5" x2="1.5" y2="1.5"/><line id="_Right" data-name="| Right" class="cls-3" x1="1.5" y1="114.28" x2="1.5" y2="1.5"/><line id="__Bot" data-name="_ Bot" class="cls-3" x1="308.51" y1="148.14" x2="571.16" y2="148.14"/><line id="_Left" data-name="| Left" class="cls-3" x1="571.16" y1="35.36" x2="571.16" y2="148.14"/></svg>