<svg id="ad" xmlns="http://www.w3.org/2000/svg" viewBox="0 0 572.66 149.64"><defs><style>.cls-1{fill:#c1c1c1;}.cls-2{fill:#4261ff;}.cls-3{fill:none;stroke:#fdfdfc;stroke-linecap:square;stroke-linejoin:bevel;stroke-width:3px;}</style></defs><title>AdForgeLogoFinal[noir]</title><path class="cls-1" d="M110.74,95.45H72.68L61.46,128.4H54.6l34-96.08h6.71l33.83,96.08H122Zm-1.9-5.69-6.12-17.93C98.93,60.46,95.43,50.4,92.07,38.59H91.49C88.14,50.4,84.78,60.46,80.85,71.84L74.72,89.77h34.12Z" transform="translate(-27.21 -5.89)"/><path class="cls-1" d="M140,56.35h16.62c22.2,0,32.8,14,32.8,35.76s-10.61,36.3-32.69,36.3H140V56.35ZM156,124.14c19.57,0,28.1-13.23,28.1-32S175.62,60.61,156,60.61H145v63.53h11Z" transform="translate(-27.21 -5.89)"/><path class="cls-2" d="M206.09,34.63h61.82v21H231.17V73.7h31.49v21H231.17v34.7H206.09V34.63Z" transform="translate(-27.21 -5.89)"/><path class="cls-2" d="M278.55,93.53c0-23.4,13.34-36.52,33-36.52s33,13.23,33,36.52-13.34,37.18-33,37.18S278.55,116.93,278.55,93.53Zm46.8,0c0-12.9-5.25-20.34-13.78-20.34S297.8,80.63,297.8,93.53s5.25,21,13.78,21S325.35,106.44,325.35,93.53Z" transform="translate(-27.21 -5.89)"/><path class="cls-2" d="M395.55,129.4l-12.25-23.84h-7.22V129.4H357.28V58.33h26.9c15.31,0,28.43,5.25,28.43,23,0,10.17-4.59,16.84-11.48,20.56l15.42,27.55h-21ZM376.09,90.69h6.78c7.44,0,11.37-3.28,11.37-9.4s-3.94-8.09-11.37-8.09h-6.78v17.5Z" transform="translate(-27.21 -5.89)"/><path class="cls-2" d="M459,57a31.76,31.76,0,0,1,22.74,9.4L471.44,78c-3.5-3.06-6.56-4.81-12.25-4.81-9.62,0-16.84,7.65-16.84,20.56,0,13.34,5.91,20.78,18.59,20.78a10.65,10.65,0,0,0,5.47-1.31v-9.84h-10.5V88.07H483V122a40.09,40.09,0,0,1-24.49,8.75c-19.46,0-35.43-12-35.43-36.3C423.11,70.57,439.51,57,459,57Z" transform="translate(-27.21 -5.89)"/><path class="cls-2" d="M496.81,58.33h45.92V74.07H515.62V85.22H538.8V101H515.62v12.68h28.21V129.4h-47V58.33Z" transform="translate(-27.21 -5.89)"/><line id="__Top" data-name="_ Top" class="cls-3" x1="264.15" y1="1.5" x2="1.5" y2="1.5"/><line id="_Right" data-name="| Right" class="cls-3" x1="1.5" y1="114.28" x2="1.5" y2="1.5"/><line id="__Bot" data-name="_ Bot" class="cls-3" x1="308.51" y1="148.14" x2="571.16" y2="148.14"/><line id="_Left" data-name="| Left" class="cls-3" x1="571.16" y1="35.36" x2="571.16" y2="148.14"/></svg>