<svg id="Calque_2" data-name="Calque 2" xmlns="http://www.w3.org/2000/svg" viewBox="0 0 40 40"><defs><style>.cls-1{fill:#fdfdfd;}.cls-2{fill:#4161ff;}</style></defs><title>ico</title><rect class="cls-1" width="1.5" height="16.19"/><rect class="cls-1" x="14.25" y="-14.25" width="1.5" height="30" transform="translate(15.75 -14.25) rotate(90)"/><rect class="cls-1" x="38.5" y="23.81" width="1.5" height="16.19" transform="translate(78.5 63.81) rotate(180)"/><rect class="cls-1" x="24.25" y="24.25" width="1.5" height="30" transform="translate(-14.25 64.25) rotate(-90)"/><path class="cls-2" d="M11,22c1.28-5.49,11.86-8.78,8.88-15.78,4.58,1.48,6.27,8.92,5.06,14.64a5.1,5.1,0,0,0,2.19-2.41c2.47,1.79,2.43,6.53,2,8.27-0.6,3.27-2.59,6.22-5.16,7.06,2.22-2.33,3-7,1.82-8.68-0.45,2.2-4,5.06-4.65,5.53-1.22-3.25-4.36-6.3-2.72-10.62-4.77,2-5.29,12,0,13.81C13.25,33.53,9.52,28.27,11,22Z" transform="translate(0 0)"/></svg>