<svg id="Calque_1" data-name="Calque 1" xmlns="http://www.w3.org/2000/svg" viewBox="0 0 1190.55 841.89"><defs><style>.cls-1{fill:#1d1d1b;}.cls-2{fill:#ad1917;}.cls-3{fill:#fff;}</style></defs><title>logoMainB</title><rect class="cls-1" width="1280" height="900"/><path class="cls-2" d="M639,134.66v84H549v-84H639Zm-70.9,65.68h17V179.28h18.53v21.05h17V153H568.05v47.32Z"/><path class="cls-3" d="M565.7,259V324.8h53.39V259h18.36v84.2h-90.1V259H565.7Z"/><path class="cls-3" d="M638.62,383.25v84H620.26V438.49H567.72v28.79h-19v-84h89.93Zm-18.36,19.2H567.72V420h52.55V402.45Z"/><path class="cls-3" d="M548.69,525.91V507.55h90.1v18.36H603.25v46.81h35.54v19h-90.1v-19h36.21V525.91H548.69Z"/><path class="cls-2" d="M589.78,716.05h-45v-9.18H580.6v-7.24H544.73v-9.26H580.6v-7.24H544.73v-9.18h45v42.1Z"/><path class="cls-2" d="M645.94,673.95v9.18H610.07V690h35.87v26h-45v-42.1h45Zm-9.51,32.59v-6.91H610.07v6.91h26.36Z"/><path class="cls-3" d="M509.79,187.09V97H594v18.36H528.14v71.74"/><path class="cls-3" d="M681.05,663.45v90.1h-84.2V735.19H662.7V663.45"/></svg>
